<?xml version="1.0" encoding="utf-8"?>
<!-- Generator: Adobe Illustrator 25.2.0, SVG Export Plug-In . SVG Version: 6.00 Build 0)  -->
<svg version="1.1" xmlns="http://www.w3.org/2000/svg" xmlns:xlink="http://www.w3.org/1999/xlink" x="0px" y="0px"
	 viewBox="0 0 500 500" style="enable-background:new 0 0 500 500;" xml:space="preserve">
<style type="text/css">
	.st0{fill:#FF9D77;}
	.st1{fill:#323126;}
	.st2{fill:#ED906B;}
	.st3{clip-path:url(#SVGID_2_);}
	.st4{fill:#1E1E1B;}
	.st5{fill:#FFE1CC;}
	.st6{fill:#91C8CF;}
	.st7{fill:none;stroke:#000000;stroke-linecap:round;stroke-linejoin:round;stroke-miterlimit:10;}
	.st8{fill:#FF9327;}
	.st9{fill:none;stroke:#FF9327;stroke-miterlimit:10;}
</style>
<g id="BACKGROUND">
</g>
<g id="OBJECTS">
	<g>
		<g>
			<path class="st0" d="M278.69,198.92c-0.69,5.36,0.42,10.94,2.55,16.46c1.79,4.6,0.13,10.1-3.34,13.61
				c-3.47,3.51-8.47,5.22-13.4,5.53c-4.93,0.31-9.85-0.65-14.65-1.83c-3.97-0.98-7.96-2.13-11.48-4.21
				c-3.52-2.08-6.58-5.21-8.28-9.23c0.58-12.07-0.03-24.2-1.81-36.15c2.49,3.52,6.05,6.18,9.88,8.18c3.83,2,7.94,3.38,12.03,4.75
				c4.26,1.43,8.55,2.87,13,3.55C267.64,200.25,272.29,200.14,278.69,198.92z"/>
			<path class="st1" d="M301.05,95.16c1.57,16.76,1.77,33.78-1.51,50.29c-3.28,16.51-10.21,32.55-21.61,44.93
				c-6.15,6.68-14.2,12.47-23.27,12.63c-7.98,0.14-15.54-4.21-20.88-10.14c-5.34-5.93-8.74-13.33-11.64-20.77
				c-6.41-16.43-10.77-33.66-13.03-51.15c-1.07-8.27-1.66-16.73-0.01-24.91c1.65-8.18,5.79-16.12,12.62-20.91
				c9.57-6.72,22.35-6.16,33.92-4.48c9.18,1.34,18.39,3.25,26.71,7.35C290.66,82.11,300.38,88,301.05,95.16z"/>
			<path class="st0" d="M297.81,101.63c2.2,26.32,4.3,53.49-4.21,78.54c-2.7,7.95-6.78,15.95-13.94,20.54
				c-7.11,4.57-16.41,5.05-24.58,2.72c-8.17-2.32-16.11-5.43-22.51-10.91c-6.17-5.28-12.45-12.93-14.29-20.76
				c-2.26-9.65-3.62-15.88-3.87-24.16c-0.43-14.32-0.66-28.85,2.89-42.75c1.42-5.54,3.5-11.05,7.23-15.43
				c6.5-7.63,17.06-10.76,27.18-11.61c9.99-0.84,20.35,0.24,29.34,4.58C290.05,86.74,297.23,94.65,297.81,101.63z"/>
			<g>
				<path d="M283.62,168.67c-1.45,6.35-6.94,11.46-12.75,11.85c-5.81,0.39-11.43-3.96-12.62-10.36
					C265.76,173.89,274.95,173.53,283.62,168.67z"/>
				<g>
					<path d="M269.17,127.48c0.76,3.3,1.54,6.56,2.6,9.69c1.09,3.13,2.48,6.05,4.37,8.77c0.46,0.7,0.92,1.46,1.35,2.15
						c0.44,0.71,0.9,1.41,1.34,2.17c0.42,0.76,0.86,1.58,1.08,2.57c0.26,0.98,0.06,2.14-0.4,2.99c-0.41,0.84-1.13,1.67-1.97,2.11
						c-0.83,0.47-1.7,0.73-2.55,0.89c-1.72,0.3-3.4,0.33-5.1,0.37c1.63-0.48,3.31-0.78,4.85-1.32c1.55-0.52,2.88-1.34,3.35-2.71
						c0.25-0.66,0.31-1.27,0.11-1.92c-0.18-0.65-0.57-1.33-1-2.01l-2.73-4.2c-0.92-1.43-1.82-2.94-2.52-4.53
						c-0.69-1.59-1.26-3.23-1.67-4.9C269.47,134.27,269.1,130.87,269.17,127.48z"/>
				</g>
				<g>
					<path d="M247.39,139.98c-0.12-2.14,1.02-3.94,2.53-4.02c1.52-0.08,2.84,1.58,2.96,3.72c0.12,2.14-1.02,3.94-2.53,4.02
						C248.83,143.78,247.51,142.12,247.39,139.98z"/>
					<ellipse transform="matrix(0.9985 -0.055 0.055 0.9985 -7.2082 16.0754)" cx="288.53" cy="139.03" rx="2.75" ry="3.88"/>
				</g>
				<g>
					<path class="st2" d="M240.96,153.98c0.13-3.83,4.32-6.79,9.35-6.62c5.03,0.17,9,3.42,8.87,7.25c-0.13,3.83-4.32,6.79-9.35,6.62
						C244.8,161.06,240.83,157.82,240.96,153.98z"/>
					<path class="st2" d="M280.5,153.7c0.13-3.83,4.32-6.79,9.35-6.62c5.03,0.17,9,3.42,8.87,7.25c-0.13,3.83-4.32,6.79-9.35,6.62
						C284.34,160.78,280.37,157.53,280.5,153.7z"/>
				</g>
			</g>
			<g>
				<path class="st1" d="M240.85,127.06c3.45-1.92,7.17-3.34,11.02-4.21c1.13-0.26,2.32-0.46,3.42-0.11
					c1.1,0.35,2.06,1.43,1.88,2.57c-0.16,1-1.11,1.71-2.1,1.94c-0.99,0.23-2.01,0.09-3.02,0.02c-4.56-0.31-9.22,0.97-12.98,3.56
					c-0.38,0.26-0.83,0.56-1.28,0.43c-0.59-0.17-0.74-1-0.43-1.53C237.66,129.19,238.07,128.61,240.85,127.06z"/>
				<path class="st1" d="M295.25,126.58c-3.65-1.5-7.51-2.48-11.44-2.9c-1.15-0.12-2.36-0.19-3.41,0.29s-1.88,1.66-1.57,2.77
					c0.27,0.98,1.3,1.57,2.31,1.68c1.01,0.11,2.01-0.15,3.01-0.33c4.5-0.84,9.27-0.11,13.31,2.02c0.41,0.22,0.89,0.46,1.32,0.27
					c0.56-0.24,0.62-1.08,0.25-1.57C298.66,128.33,298.2,127.8,295.25,126.58z"/>
			</g>
			<g>
				<path class="st1" d="M230.52,91.39c5.41-3.19,12.38-1.69,18.07,0.96c5.69,2.66,10.98,6.41,17.12,7.74
					c6.76,1.47,13.75-0.17,20.64-0.72c6.9-0.55,14.63,0.34,18.19,5.09c1.25-8.48-1.55-17.33-6.93-24
					c-5.38-6.67-13.17-11.2-21.49-13.27c-8.31-2.07-17.12-1.76-25.46,0.18c-5.46,1.27-10.94,3.34-14.91,7.3
					C231.8,78.64,229.69,84.85,230.52,91.39z"/>
				<path class="st1" d="M234.71,86.85c-4.41,5.6-4.43,13.43-3.53,20.5c0.9,7.07,2.5,14.33,0.65,21.21
					c-1.97,7.32-7.73,13.74-7.33,21.31c0.1,1.89,0.14,4.49-1.71,4.89c-1.13,0.24-2.23-0.71-2.61-1.8c-0.38-1.09-0.13-2.29-0.21-3.44
					c-1.85-27.81-6.6-13.92-6.6-22.1c0-6.31-3.81-22.85-2.55-29.03c1.6-7.85,4.43-16.33,11.38-20.3c3.29-1.88,7.61-2.44,10.82-0.42
					C236.22,79.69,236.83,84.15,234.71,86.85z"/>
				<g>
					<path class="st0" d="M215.22,130.91c-2.25-1.24-5.23-0.8-7.25,0.73c-2.02,1.53-3.15,3.98-3.44,6.46
						c-0.29,2.48,0.18,4.99,0.9,7.39c0.75,2.49,1.79,4.95,3.54,6.91c1.75,1.97,4.3,3.39,6.97,3.35c0.94-0.01,1.96-0.26,2.52-0.99
						c0.59-0.78,0.47-1.85,0.33-2.8C217.81,145.15,216.82,138.37,215.22,130.91z"/>
					<g>
						<g>
							<path d="M206.92,139.56c0.08-0.9,0.48-1.71,1.01-2.4c0.54-0.69,1.24-1.26,2.03-1.67c0.79-0.41,1.66-0.65,2.55-0.68
								c0.88-0.02,1.78,0.14,2.54,0.63c-0.83,0.34-1.54,0.6-2.22,0.91c-0.68,0.29-1.32,0.6-1.95,0.92
								c-0.63,0.33-1.25,0.67-1.89,1.05L206.92,139.56z"/>
						</g>
						<g>
							<path d="M209.38,137.54c0.94,0.86,1.52,2.03,1.96,3.17c0.43,1.15,0.72,2.3,1.03,3.4c0.3,1.07,0.64,2.12,1.1,3.1
								c0.47,0.98,1.05,1.89,2.03,2.68c-1.29,0.02-2.52-0.82-3.35-1.82c-0.84-1.02-1.38-2.22-1.72-3.43
								c-0.33-1.2-0.48-2.39-0.62-3.55C209.7,139.91,209.58,138.79,209.38,137.54z"/>
						</g>
					</g>
				</g>
				<g>
					<g>
						<path d="M239.84,69.96c-1.35,1.88-2.58,3.77-3.64,5.73c-1.04,1.97-1.95,3.99-2.65,6.09c-0.73,2.09-1.24,4.24-1.62,6.44
							c-0.36,2.2-0.54,4.44-0.62,6.76c-0.75-2.2-1.02-4.56-0.94-6.91c0.07-2.35,0.53-4.69,1.28-6.93c0.78-2.23,1.84-4.36,3.22-6.27
							C236.25,72.96,237.9,71.25,239.84,69.96z"/>
					</g>
					<g>
						<path d="M227.64,74.05c0.02,1.63-0.02,3.19-0.03,4.75c-0.01,1.55,0.02,3.09,0.08,4.62c0.06,1.53,0.15,3.07,0.28,4.61
							c0.13,1.55,0.29,3.1,0.39,4.73c-0.89-1.37-1.5-2.89-1.93-4.46c-0.43-1.57-0.68-3.18-0.74-4.81c-0.06-1.63,0.06-3.26,0.37-4.85
							C226.37,77.05,226.86,75.49,227.64,74.05z"/>
					</g>
					<g>
						<path d="M223.75,90.11c-0.86-0.57-1.61-1.07-2.39-1.49c-0.77-0.43-1.54-0.8-2.33-1.13c-0.79-0.32-1.6-0.6-2.45-0.83
							c-0.85-0.24-1.74-0.42-2.75-0.62c0.84-0.62,1.87-0.89,2.91-0.95c1.04-0.05,2.09,0.15,3.05,0.55c0.96,0.4,1.85,1,2.55,1.76
							C223.04,88.17,223.59,89.09,223.75,90.11z"/>
					</g>
					<g>
						<path d="M226.37,96.55c-3.15,2.64-5.38,5.81-7.09,9.32c-0.86,1.75-1.61,3.57-2.32,5.44c-0.71,1.87-1.39,3.77-2.25,5.65
							c0.04-2.06,0.3-4.09,0.75-6.1c0.45-2.01,1.09-4,2.02-5.87c0.92-1.88,2.14-3.64,3.63-5.13
							C222.6,98.37,224.39,97.15,226.37,96.55z"/>
					</g>
					<g>
						<path d="M221.22,94.66c-3.35,2.37-5.6,5.53-7.25,9.03c-0.82,1.75-1.52,3.59-2.17,5.47c-0.66,1.88-1.27,3.81-2.09,5.7
							c0-2.06,0.19-4.09,0.58-6.1c0.39-2.01,0.97-4.02,1.87-5.92c0.9-1.9,2.12-3.67,3.64-5.13
							C217.32,96.24,219.19,95.09,221.22,94.66z"/>
					</g>
					<g>
						<path d="M245.44,83.35c1.57-2.33,3.61-4.34,5.88-6.03c2.27-1.7,4.82-3.04,7.48-4.06c2.67-0.98,5.47-1.63,8.31-1.83
							c2.83-0.22,5.69-0.02,8.4,0.71c-2.8,0.1-5.53,0.35-8.2,0.84c-2.67,0.5-5.29,1.2-7.81,2.16c-2.53,0.92-4.97,2.11-7.32,3.48
							C249.84,79.99,247.62,81.59,245.44,83.35z"/>
					</g>
					<g>
						<path d="M255.79,89.03c2.73-3.01,6.22-5.36,10.03-6.94c3.82-1.59,7.98-2.38,12.15-2.32c4.16,0.09,8.3,1.03,12.05,2.77
							c3.75,1.72,7.16,4.2,9.77,7.31c-3.19-2.5-6.67-4.49-10.37-5.87c-3.69-1.36-7.58-2.15-11.49-2.21
							c-3.9-0.09-7.82,0.56-11.57,1.78C262.63,84.79,259.07,86.64,255.79,89.03z"/>
					</g>
					<g>
						<path d="M274.82,94.96c2.22-1.41,4.52-2.65,6.94-3.68c2.42-1.04,4.97-1.84,7.62-2.28c2.65-0.4,5.4-0.43,8.04,0.15
							c2.63,0.55,5.18,1.7,7.1,3.52c-2.38-1.11-4.85-1.73-7.34-1.98c-2.49-0.23-5.01-0.12-7.48,0.29c-2.49,0.38-4.94,1.05-7.4,1.77
							C279.84,93.47,277.37,94.3,274.82,94.96z"/>
					</g>
				</g>
			</g>
		</g>
		<g>
			<defs>
				<circle id="SVGID_1_" cx="250" cy="264.05" r="168.5"/>
			</defs>
			<clipPath id="SVGID_2_">
				<use xlink:href="#SVGID_1_"  style="overflow:visible;"/>
			</clipPath>
			<g class="st3">
				<path class="st4" d="M229.62,202.07c2.89,11.09,5.36,15.53,11.87,19.8c6.51,4.27,14.63,6.42,22.25,4.81s14-10.56,15.8-18.58
					c11.79,10.85,13.8,15.43,16.29,24.48c2.49,9.05,16.71,78.08,16.46,103.35c-0.25,24.84-5.64,80.91-0.96,105.31
					c0,0-104.03-3.7-104.08-4.09C211.4,372.6,216.63,274.72,229.62,202.07z"/>
				<g>
					<path class="st5" d="M220.05,298.45c30.31,2.73,60.96,1.68,91.01-3.12c0,0-1.73,23.86-1.93,23.82
						c-29.07,5.23-59.04,5.48-88.2,0.73L220.05,298.45z"/>
					<path class="st5" d="M222.05,342.45c30.31,2.73,60.96,1.68,91.01-3.12c0,0-1.73,23.86-1.93,23.82
						c-29.07,5.23-59.04,5.48-88.2,0.73L222.05,342.45z"/>
					<path class="st5" d="M224.55,387.95c30.31,2.73,60.96,1.68,91.01-3.12c0,0-1.73,23.86-1.93,23.82
						c-29.07,5.23-59.04,5.48-88.2,0.73L224.55,387.95z"/>
					<g>
						<path d="M215.43,213.78c2.7,3.25,5.59,6.31,8.64,9.21c1.51,1.47,3.04,2.91,4.58,4.36c1.54,1.41,3.06,2.96,4.6,4.31
							c6.17,5.49,14.41,8.21,22.63,8.54c4.12,0.19,8.28-0.16,12.32-1.03c4.05-0.83,7.99-2.22,11.66-4.12
							c3.61-1.96,7.04-4.47,9.28-7.92c2.28-3.37,2.94-7.96,1.21-11.84c1.07,1.83,1.53,4.01,1.42,6.16c-0.1,2.15-0.69,4.3-1.79,6.19
							c-2.18,3.8-5.67,6.61-9.36,8.78c-7.51,4.24-16.23,6.1-24.83,5.78c-2.15-0.12-4.3-0.37-6.42-0.78
							c-2.11-0.45-4.21-0.98-6.23-1.78c-2.01-0.8-3.99-1.71-5.81-2.87c-0.47-0.27-0.92-0.56-1.36-0.89
							c-0.44-0.32-0.89-0.61-1.32-0.94c-0.83-0.7-1.69-1.35-2.45-2.13c-3.04-3-5.93-6.02-8.82-9.13
							C220.55,220.52,217.77,217.3,215.43,213.78z"/>
					</g>
				</g>
				<g>
					<g>
						<path class="st6" d="M338.4,251.7c10.77,19.37,16.39,41.58,16.12,63.75c-0.13,11.21-1.73,22.51,0.12,33.57
							c1.61,9.59,5.76,18.62,7.16,28.24c2.47,16.9-1.94,51.08,2.59,61.19c0,0-37.64,2.19-38.08,1.12
							c1.13-61.02-3.75-131.04-2.62-192.06c0.04-2.06,0.18-4.36,1.69-5.77c2.01-1.88,5.5-1.01,7.31,1.05
							C334.5,244.85,335.87,247.15,338.4,251.7z"/>
						<path class="st6" d="M279.31,209.08c8.46,6.87,13.88,17.52,14.9,28.38c1.02,10.86-0.85,21.75-4.26,32.28
							c5.63,16.43,10.82,33.19,12.17,50.51c1.14,14.56-0.44,29.18-1.18,43.77c-0.74,14.59,1.9,62.5,6.36,76.41
							c0,0,30.55,1.43,30.17-0.46c-4.28-26.75-2.98-81.97,1.41-108.71c4.39-26.73,7.81-54.6,0.69-81.53
							c-7.95-12.99-21.83-22.18-37.31-25.2c-2.48-11.06-16-24.13-16-24.13s-1.69,1.45-7.27,4.34l-0.6,0.25
							C278.4,204.99,279.06,208.02,279.31,209.08z"/>
					</g>
					<g>
						<g>
							<path d="M340.8,274.68c0.73,3.38,1.23,6.83,1.41,10.3l0.17,2.6l0.08,2.6l0.07,2.6l0,2.6c-0.05,6.94-0.4,13.87-0.92,20.79
								c-0.51,6.92-1.31,13.81-2.2,20.69c-0.92,6.88-1.95,13.74-3.34,20.56c-0.71,3.4-1.42,6.73-1.91,10.14
								c-0.51,3.4-0.88,6.82-1.16,10.25c-0.57,6.87-0.66,13.77-0.76,20.68c-0.07,6.91,0.01,13.83-0.02,20.76
								c-0.09,6.93-0.21,13.86-0.83,20.77c0.17-6.92,0.09-13.84-0.15-20.76c-0.17-6.92-0.42-13.84-0.54-20.77
								c-0.21-13.84,0.37-27.87,3.41-41.49c2.81-13.48,4.51-27.24,5.97-40.97c0.71-6.87,1.23-13.77,1.47-20.67
								C341.83,288.47,341.88,281.53,340.8,274.68z"/>
						</g>
						<g>
							<path d="M354.5,387.85c-2.03-0.01-3.99-0.05-5.95-0.02c-1.95,0.03-3.89,0.13-5.82,0.3c-1.93,0.17-3.86,0.4-5.79,0.7
								c-1.93,0.3-3.86,0.68-5.86,1.03c1.69-1.12,3.56-1.94,5.5-2.55c1.94-0.6,3.94-1,5.97-1.17c2.03-0.18,4.07-0.12,6.08,0.14
								C350.66,386.55,352.65,387.03,354.5,387.85z"/>
						</g>
						<g>
							<path d="M356.07,380.14c-2.2,0.51-4.36,0.97-6.49,1.51c-2.12,0.55-4.23,1.14-6.29,1.84c-2.08,0.67-4.11,1.45-6.14,2.28
								c-2.03,0.84-4.04,1.75-6.11,2.65c1.61-1.6,3.46-2.93,5.42-4.05c1.96-1.14,4.06-2.04,6.21-2.77c2.16-0.69,4.38-1.22,6.64-1.47
								C351.55,379.86,353.83,379.82,356.07,380.14z"/>
						</g>
						<g>
							<path d="M356.9,375.31c-2.21,0.32-4.35,0.68-6.45,1.17c-2.1,0.5-4.15,1.09-6.15,1.84c-2.01,0.72-3.96,1.61-5.88,2.59
								c-1.92,0.99-3.77,2.11-5.67,3.29c1.34-1.8,3.02-3.33,4.86-4.63c1.84-1.3,3.88-2.33,6-3.13c2.13-0.76,4.35-1.3,6.6-1.5
								C352.44,374.73,354.72,374.81,356.9,375.31z"/>
						</g>
						<g>
							<path d="M354.1,370.12c-2.31,0.75-4.51,1.59-6.62,2.6c-2.1,1.02-4.12,2.18-6.01,3.53c-1.91,1.32-3.67,2.83-5.35,4.47
								c-1.66,1.65-3.19,3.44-4.68,5.36c0.75-2.31,1.99-4.47,3.52-6.39c1.52-1.94,3.35-3.63,5.36-5.06
								c2.03-1.41,4.24-2.56,6.57-3.34C349.23,370.5,351.67,370.05,354.1,370.12z"/>
						</g>
						<g>
							<path d="M352.82,335.72c-0.03,2.74-0.37,5.46-0.9,8.14c-0.52,2.68-1.27,5.32-2.15,7.91c-0.92,2.58-1.97,5.1-3.24,7.53
								c-1.25,2.43-2.68,4.77-4.37,6.92c0.96-2.56,1.98-5.06,2.95-7.56c0.96-2.51,1.91-5.01,2.78-7.54c0.9-2.52,1.72-5.07,2.53-7.63
								C351.22,340.91,351.98,338.32,352.82,335.72z"/>
						</g>
						<g>
							<path d="M320.11,256.88c2.48,6.02,4.19,12.35,5.43,18.76c1.18,6.43,1.81,12.95,2.08,19.47c0.51,13.07-0.61,26.12-1.92,39.06
								l-2.2,19.39c-0.72,6.46-1.31,12.93-1.88,19.39c-0.54,6.47-0.92,12.95-1,19.44c-0.14,6.49,0.09,12.99,0.8,19.46
								c-1.16-6.41-1.6-12.94-1.78-19.45c-0.12-6.52,0.09-13.04,0.45-19.55c0.74-13.02,2.31-25.96,3.63-38.89
								c1.47-12.91,2.56-25.85,2.38-38.81c-0.08-6.47-0.54-12.95-1.51-19.35C323.68,269.39,322.17,263.06,320.11,256.88z"/>
						</g>
						<g>
							<path d="M303.87,249.28c2.84,7.47,4.82,15.24,6.44,23.07c1.56,7.85,2.67,15.77,3.57,23.72c0.92,7.94,1.46,15.92,1.97,23.89
								c0.49,7.97,0.87,15.95,1.24,23.92c0.61,15.95,1.23,31.89,2.44,47.78c0.59,7.95,1.39,15.88,2.52,23.76
								c1.07,7.9,2.56,15.73,4.53,23.47c-2.41-7.61-4.1-15.45-5.5-23.32c-1.33-7.88-2.3-15.83-3.08-23.78
								c-1.53-15.92-2.14-31.89-2.9-47.83c-0.61-15.95-1.32-31.88-2.74-47.75c-0.71-7.93-1.65-15.85-3-23.69
								C308.06,264.68,306.27,256.9,303.87,249.28z"/>
						</g>
						<g>
							<path d="M294.94,245.64c1.42,1.56,2.7,3.25,3.61,5.23c0.9,1.97,1.4,4.27,0.97,6.56c-0.21,1.15-0.7,2.24-1.28,3.18
								c-0.6,0.93-1.26,1.78-1.95,2.56c-1.33,1.59-2.7,3.02-3.38,5.04c-0.1-1.06,0.18-2.16,0.59-3.16c0.43-1,0.97-1.93,1.54-2.8
								c1.13-1.76,2.2-3.4,2.52-5.18c0.34-1.8,0.1-3.75-0.46-5.65C296.54,249.52,295.66,247.63,294.94,245.64z"/>
						</g>
						<g>
							<path d="M297.21,248.21c2.42-0.31,4.99-0.6,6.85-2.01c0.91-0.69,1.65-1.61,1.94-2.63c0.3-1.01,0.1-2.05-0.36-3.11l-3.27-6.57
								c-1.09-2.2-2.18-4.4-3.32-6.58c-1.12-2.18-2.27-4.34-3.5-6.45c-1.2-2.13-2.49-4.2-3.83-6.24c-2.69-4.08-5.78-7.88-9.23-11.43
								c4,2.92,7.52,6.53,10.5,10.52c3.04,3.96,5.53,8.29,7.84,12.68c2.25,4.45,4.32,8.85,6.26,13.5c0.22,0.62,0.4,1.29,0.46,1.99
								c0.05,0.7-0.04,1.45-0.31,2.11c-0.52,1.33-1.51,2.33-2.63,3.02C302.27,248.37,299.65,248.32,297.21,248.21z"/>
						</g>
						<g>
							<path d="M302.26,224.99c1.24,2.08,2.58,4.07,4,5.98c1.43,1.91,2.97,3.72,4.58,5.46c1.63,1.72,3.32,3.38,5.14,4.89
								c1.79,1.53,3.7,2.92,5.69,4.11l0.06,0.03c0.43,0.25,0.57,0.81,0.31,1.24c-0.1,0.17-0.25,0.3-0.43,0.37
								c-1.25,0.52-2.56,0.9-3.9,1.07c-1.33,0.17-2.68,0.19-4,0.02c-2.63-0.32-5.17-1.34-7.18-2.95c2.31,1.12,4.8,1.68,7.26,1.72
								c1.23,0,2.45-0.09,3.64-0.36c1.18-0.27,2.34-0.63,3.42-1.16l-0.06,1.64c-2.23-1.15-4.22-2.62-6.11-4.2
								c-1.86-1.61-3.61-3.34-5.18-5.23c-1.59-1.87-3-3.88-4.24-5.99C304.05,229.52,303.01,227.3,302.26,224.99z"/>
						</g>
					</g>
					<g>
						<ellipse cx="310.83" cy="374.66" rx="2.75" ry="3.5"/>
						<ellipse cx="308.83" cy="319.66" rx="2.75" ry="3.5"/>
						<ellipse cx="299.33" cy="268.66" rx="2.75" ry="3.5"/>
					</g>
				</g>
				<g>
					<g>
						<path class="st6" d="M229.21,199.29c2.24,14.83,0.71,29.72,13.4,44.84c-2.58,11.07-5.17,22.18-6.33,33.49
							c-1.07,10.5-0.9,21.09-0.73,31.65c0.56,34.29,1.12,94.62,4.2,128.78c0,0-93.12-2.01-92.22-2.27
							c-2.42-64.26-5.13-147.55-6.69-213.18c5.82-10.11,18.29-13.89,29.59-16.82C185.28,201.94,212.13,199.6,229.21,199.29z"/>
						<path class="st6" d="M161.27,312.7c6.57-21.2,9.54-43.49,9.02-65.69c-0.22-9.22-1.24-18.99-6.85-26.31
							c-3.73-4.86-9.78-8.33-15.85-7.54c-4.64,0.6-8.66,3.53-11.98,6.83c-8.6,8.56-13.78,20.03-16.99,31.73
							c-3.21,11.7-4.62,23.81-6.78,35.76c-2.23,12.27-5.27,24.49-5.47,36.96c-0.2,12.47,5.29,37.04,13.67,46.27
							c3.22,3.55,20.51-10.23,23.99-15.14C153.04,342.84,156.7,327.45,161.27,312.7z"/>
					</g>
					<g>
						<g>
							<path d="M239.38,247.99c-4.97-2.4-9.66-5.43-13.94-8.97c-4.3-3.52-8.19-7.54-11.66-11.89c-3.44-4.38-6.45-9.09-8.88-14.09
								c-2.46-4.98-4.31-10.25-5.5-15.64c1.93,5.17,4.24,10.14,6.88,14.92c2.67,4.76,5.67,9.31,9.06,13.57
								C222.09,234.44,230.23,241.83,239.38,247.99z"/>
						</g>
						<g>
							<path d="M225.39,238.31c-0.8,4.03-1.56,8.06-2.23,12.11c-0.64,4.05-1.23,8.11-1.69,12.18c-0.98,8.14-1.61,16.32-1.83,24.5
								c-0.21,8.19-0.14,16.37,0.34,24.55c0.47,8.18,1.23,16.35,1.95,24.53c0.67,8.18,1.23,16.42,1.48,24.63
								c0.28,8.21,0.55,16.43,0.47,24.66c-0.05,8.22-0.27,16.45-0.86,24.66l-0.57,6.15c-0.26,2.04-0.44,4.09-0.77,6.12
								c-0.54,4.08-1.38,8.12-2.43,12.09c1.7-8.04,2.45-16.23,2.8-24.41c0.39-8.19,0.43-16.39,0.3-24.59
								c-0.16-8.2-0.38-16.4-0.75-24.6c-0.31-8.2-0.93-16.36-1.65-24.54c-0.65-8.18-1.36-16.38-1.77-24.6
								c-0.21-4.11-0.33-8.23-0.34-12.35c-0.02-2.06,0.01-4.12,0.04-6.18c0.08-2.06,0.12-4.12,0.24-6.17
								c0.4-8.23,1.21-16.43,2.39-24.57C221.76,254.34,223.34,246.26,225.39,238.31z"/>
						</g>
						<g>
							<path d="M180.43,215.46c1.54,5.4,2.96,10.83,4.25,16.28c1.32,5.45,2.53,10.92,3.71,16.4c1.15,5.48,2.27,10.97,3.28,16.49
								c1.04,5.51,1.95,11.04,2.73,16.6c-1.54-5.4-2.96-10.83-4.26-16.28c-1.32-5.45-2.53-10.92-3.71-16.4
								c-1.14-5.48-2.27-10.97-3.28-16.49C182.12,226.56,181.21,221.02,180.43,215.46z"/>
						</g>
						<g>
							<path d="M156.46,229.31c8.12,13.99,13.96,29.33,17.72,45.11c1.85,7.9,3.2,15.92,3.93,24c0.77,8.07,0.91,16.2,0.41,24.27
								c-0.29-8.08-0.95-16.12-1.97-24.1c-1.05-7.98-2.46-15.9-4.33-23.71C168.57,259.23,163.17,244.02,156.46,229.31z"/>
						</g>
						<g>
							<path d="M138.68,229.25c3.26,1.59,6.33,3.55,9.23,5.74c2.91,2.18,5.62,4.62,8.16,7.23c2.51,2.63,4.86,5.43,6.93,8.41
								c2.08,2.98,3.93,6.12,5.4,9.43c-2.19-2.89-4.37-5.73-6.65-8.48c-2.29-2.74-4.64-5.42-7.13-7.97
								c-2.46-2.58-5.05-5.03-7.71-7.41C144.26,233.82,141.49,231.54,138.68,229.25z"/>
						</g>
						<g>
							<path d="M142.12,245.13c3.36,1.09,6.57,2.63,9.61,4.47c3.04,1.83,5.89,3.99,8.53,6.37c2.62,2.4,5.04,5.03,7.15,7.88
								c2.12,2.85,3.96,5.9,5.36,9.14c-2.12-2.82-4.27-5.56-6.57-8.16c-2.3-2.59-4.71-5.08-7.28-7.39c-2.54-2.34-5.25-4.5-8.05-6.55
								C148.06,248.85,145.13,246.96,142.12,245.13z"/>
						</g>
						<g>
							<path d="M128.24,258.08c3.39-0.99,6.93-1.45,10.48-1.51c3.55-0.08,7.12,0.29,10.61,1c3.48,0.74,6.9,1.83,10.12,3.32
								c3.23,1.48,6.29,3.32,9,5.58c-3.16-1.56-6.34-2.96-9.59-4.14c-3.26-1.16-6.57-2.12-9.94-2.81c-3.37-0.72-6.79-1.16-10.24-1.4
								C135.23,257.89,131.76,257.91,128.24,258.08z"/>
						</g>
						<g>
							<path d="M135.22,278.52c3.38-1.01,6.94-1.44,10.5-1.43c3.56,0,7.12,0.49,10.58,1.36c3.45,0.9,6.81,2.19,9.93,3.9
								c3.12,1.7,6.03,3.8,8.51,6.31c-2.99-1.86-6.04-3.52-9.2-4.91c-3.16-1.38-6.41-2.53-9.74-3.37
								c-3.32-0.87-6.72-1.43-10.15-1.74C142.21,278.35,138.74,278.34,135.22,278.52z"/>
						</g>
						<g>
							<path class="st7" d="M226.9,314.81c1.02-3.67,1.03-7.62,0.04-11.3c-0.45,0.01-0.84,0.35-1.05,0.75
								c-0.2,0.4-0.25,0.86-0.29,1.31c-0.21,2.53-0.24,5.07-0.09,7.6c0.03,0.5,0.07,1.02,0.28,1.47
								C226.02,315.1,226.68,315.61,226.9,314.81z"/>
							<path class="st7" d="M230.7,267.32c1.32-3.58,1.66-7.51,0.97-11.26c-0.45-0.03-0.87,0.28-1.1,0.66
								c-0.23,0.39-0.32,0.84-0.39,1.29c-0.42,2.5-0.66,5.03-0.72,7.56c-0.01,0.5-0.02,1.02,0.16,1.49
								C229.79,267.54,230.42,268.09,230.7,267.32z"/>
							<path class="st7" d="M230.06,373.27c0.74-3.74,0.47-7.67-0.8-11.27c-0.45,0.04-0.82,0.41-0.99,0.82s-0.18,0.88-0.19,1.33
								c-0.02,2.53,0.13,5.07,0.47,7.58c0.07,0.5,0.14,1.01,0.39,1.45S229.89,374.08,230.06,373.27z"/>
							<path class="st7" d="M232.06,423.27c0.74-3.74,0.47-7.67-0.8-11.27c-0.45,0.04-0.82,0.41-0.99,0.82s-0.18,0.88-0.19,1.33
								c-0.02,2.53,0.13,5.07,0.47,7.58c0.07,0.5,0.14,1.01,0.39,1.45S231.89,424.08,232.06,423.27z"/>
						</g>
					</g>
				</g>
				<g>
					<g>
						<path d="M217.63,130.19l11.95,49.03c0.06,0.23-0.02,0.48-0.19,0.64l-15.81,14.46c-0.38,0.34-0.98,0.15-1.08-0.35l-9.89-48
							c-0.04-0.2,0.01-0.41,0.15-0.57l13.74-15.49C216.86,129.51,217.51,129.67,217.63,130.19z"/>
						<g>
							<ellipse cx="216.58" cy="141.93" rx="1.62" ry="2"/>
							<ellipse cx="215.08" cy="136.18" rx="1.62" ry="2"/>
						</g>
					</g>
					<g>
						<g>
							<path class="st0" d="M196.81,318.41c10.15-22.42,15.4-43.98,22.69-67.49c0,0,12.07-17.56,12.34-18.6
								c1.22-7.27,1.07-14.76,0.4-22.94c4.73-3.79,7.56-9.84,7.4-16.88c0.73-0.58,0.93-1.64,0.72-2.55c-0.2-0.91-0.73-1.7-1.25-2.48
								c-2.91-4.33-5.81-8.67-8.76-13.01c-0.41-0.51-1.09-0.75-1.74-0.78c-0.66-0.02-1.3,0.15-1.93,0.32
								c-4.2,1.17-8.3,2.73-12.09,4.1c1.96-4.33,3.42-8.88,4.35-13.54c0.41-2.07,0.72-4.18,0.58-6.28c-0.14-2.1-0.74-4.22-2-5.91
								c-0.62-0.83-1.59-1.61-2.6-1.36c-1.23,0.3-1.6,1.82-1.83,3.06c-1.32,7.07-5.12,13.4-8.85,19.56
								c-2.34,3.86-4.67,7.71-7.01,11.57c-1.45,2.4-2.92,4.82-4.03,8.19c4.38,10.31,7.53,21.14,9.34,32.5
								c-2.71,7.85-6.71,15.25-11.78,21.83c0,0-31.58,36.26-31.18,36.48C166.92,299.24,178.41,314.94,196.81,318.41z"/>
							<g>
								<g>
									<path d="M236.65,195.13c-0.17,0.69-0.57,1.23-1.04,1.67c-0.47,0.43-1.04,0.76-1.65,0.96c-0.61,0.2-1.25,0.29-1.89,0.23
										c-0.64-0.07-1.28-0.26-1.83-0.71c0.6-0.39,1.12-0.62,1.62-0.85c0.5-0.22,0.98-0.4,1.47-0.56c0.49-0.16,0.98-0.31,1.51-0.44
										C235.39,195.31,235.94,195.18,236.65,195.13z"/>
								</g>
								<g>
									<path d="M235.37,201.28c-0.41,0.44-0.91,0.63-1.41,0.73c-0.5,0.08-1,0.04-1.48-0.11c-0.47-0.15-0.91-0.4-1.27-0.76
										c-0.35-0.36-0.65-0.8-0.73-1.41c0.6-0.06,1.04-0.03,1.46,0.01c0.41,0.05,0.78,0.13,1.14,0.24
										c0.36,0.11,0.71,0.26,1.07,0.46C234.53,200.67,234.91,200.89,235.37,201.28z"/>
								</g>
								<g>
									<path d="M230.08,194c0.52,1.22,0.85,2.45,1.1,3.69c0.26,1.24,0.44,2.49,0.55,3.74c0.12,1.25,0.15,2.51,0.11,3.78
										c-0.04,1.27-0.14,2.54-0.45,3.83c-0.52-1.22-0.85-2.45-1.11-3.69c-0.25-1.24-0.44-2.49-0.55-3.74
										c-0.11-1.25-0.14-2.51-0.11-3.78C229.68,196.56,229.78,195.29,230.08,194z"/>
								</g>
								<g>
									<path d="M214.51,187.88c1.97-0.6,3.95-1.01,5.94-1.35c1.99-0.34,3.99-0.61,6-0.8c2.01-0.2,4.02-0.31,6.04-0.36
										c1.01-0.03,2.02-0.02,3.04,0c0.52,0.03,1.06,0.05,1.59,0.21c0.52,0.14,1.04,0.44,1.32,0.88c-0.9-0.55-1.87-0.31-2.82-0.11
										c-0.99,0.21-1.98,0.41-2.98,0.58c-1.99,0.34-3.99,0.61-6,0.79c-2.01,0.19-4.02,0.31-6.04,0.35
										C218.59,188.13,216.56,188.1,214.51,187.88z"/>
								</g>
								<g>
									<path d="M207.91,185.82c2.06-1.2,4.27-2.1,6.52-2.85c2.25-0.76,4.56-1.31,6.87-1.79c2.32-0.44,4.65-0.8,6.99-1.03
										c1.18-0.12,2.31-0.23,3.56-0.27c0.62,0.01,1.28,0.07,1.87,0.32c0.59,0.24,1.11,0.67,1.36,1.22
										c-0.9-0.83-2.08-0.81-3.14-0.57l-3.39,0.83c-2.28,0.54-4.58,0.99-6.86,1.45l-6.86,1.33
										C212.54,184.93,210.25,185.4,207.91,185.82z"/>
								</g>
								<g>
									<path d="M200.55,185.35c0.81-1.16,1.81-2.13,2.88-3c1.08-0.87,2.24-1.63,3.46-2.26c1.22-0.64,2.51-1.15,3.84-1.54
										c1.33-0.38,2.7-0.64,4.11-0.63c-1.17,0.79-2.35,1.44-3.52,2.08c-1.17,0.64-2.34,1.26-3.51,1.87l-3.54,1.8
										C203.07,184.25,201.87,184.84,200.55,185.35z"/>
								</g>
							</g>
						</g>
						<path class="st6" d="M147.89,381.62c11.37-7.97,22.84-16.04,32.19-26.31c9.35-10.27,15.91-28.72,17.95-39.11
							c-17.29-2.43-29.95-16.85-38.23-33.01c-1.47-0.38-4.04,0.32-6.3,1.99c-2.18,1.61-1.72,2.98-4.02,5.43
							c-2.3,2.44-7.36,2.7-9.56,4.57c-7.33,6.23-14.18,16.29-18.71,23.15c-5.37,8.13-8.87,17.65-9.05,27.39
							c-0.18,9.74,3.15,19.68,9.88,26.73C128.78,379.49,140.5,386.8,147.89,381.62z"/>
						<g>
							<g>
								<path d="M160.41,283.18c-3.06-0.32-6.16,1.17-7.66,3.65c-0.78,1.22-1.27,2.78-2.54,4.01c-1.28,1.21-2.9,1.69-4.28,2.25
									c-2.74,1.08-5.13,2.88-7.25,4.99c-2.12,2.11-4.12,4.44-6.02,6.81c-3.81,4.72-7.15,9.83-9.7,15.33
									c-2.51,5.51-4.26,11.41-4.76,17.56c-0.17-3.08,0.14-6.18,0.67-9.24c0.59-3.05,1.49-6.05,2.65-8.94
									c2.33-5.79,5.71-11.11,9.58-15.96c1.97-2.4,3.98-4.75,6.27-6.92c2.29-2.13,4.95-4.09,8.02-5.08c1.48-0.5,2.91-0.9,3.95-1.77
									c1.05-0.84,1.66-2.28,2.61-3.59C153.93,283.67,157.4,282.41,160.41,283.18z"/>
							</g>
							<g>
								<path d="M126.75,311.55c-2.82,2.91-5.07,6.22-6.78,9.78c-1.69,3.56-2.9,7.34-3.58,11.22c-0.72,3.88-0.94,7.85-0.91,11.83
									c0.04,3.99,0.38,7.99,0.75,12.02c-1.18-3.87-1.97-7.88-2.31-11.94c-0.35-4.06-0.21-8.2,0.51-12.26
									c0.75-4.05,2.11-8.01,4.17-11.59C120.63,317.03,123.38,313.83,126.75,311.55z"/>
							</g>
							<g>
								<path d="M131.84,304.39c0.88,4.03,1.92,7.99,3.21,11.85c1.3,3.85,2.82,7.62,4.62,11.26c1.76,3.65,3.81,7.16,6.05,10.56
									c2.25,3.39,4.73,6.64,7.37,9.81c-3.22-2.58-6.1-5.62-8.64-8.91c-2.55-3.29-4.73-6.86-6.57-10.59
									c-1.81-3.75-3.29-7.67-4.31-11.7C132.52,312.65,131.9,308.52,131.84,304.39z"/>
							</g>
							<g>
								<path d="M138.15,298.15c3.15,4.62,6.33,9.19,9.69,13.61c3.38,4.39,6.95,8.63,10.9,12.47c3.92,3.87,8.22,7.35,12.86,10.31
									c4.65,2.94,9.66,5.38,15,7.05c-5.52-0.91-10.89-2.92-15.8-5.71c-4.93-2.77-9.42-6.29-13.46-10.23
									c-4.02-3.97-7.6-8.35-10.76-12.99C143.39,308.04,140.63,303.16,138.15,298.15z"/>
							</g>
							<g>
								<path d="M197.78,316.83c-1.51,6.92-3.39,13.8-6.11,20.4c-2.67,6.62-6.39,12.87-10.96,18.39
									c-4.59,5.52-9.96,10.31-15.64,14.58c-5.67,4.3-11.66,8.12-17.76,11.73c5.67-4.26,11.34-8.5,16.79-12.96
									c5.43-4.48,10.63-9.24,15.07-14.63c4.48-5.36,8.16-11.35,11.08-17.74C193.16,330.22,195.52,323.55,197.78,316.83z"/>
							</g>
						</g>
					</g>
				</g>
			</g>
		</g>
	</g>
	<g>
		<polygon class="st8" points="338.41,139.79 334.48,131.57 332.59,140.59 323.96,141.83 331.51,145.98 329.08,152.57 335.65,146.2 
			343.69,151.44 339.84,144.64 345.96,139.53 		"/>
		<polygon class="st8" points="130.26,191.78 127.16,186.21 126.64,192.74 121.27,194.2 126.36,196.64 125.32,201.49 129,196.52 
			134.48,199.71 131.53,195.13 135.02,191.09 		"/>
		<circle class="st8" cx="367.62" cy="201.45" r="2.5"/>
		<circle class="st8" cx="93.62" cy="273.45" r="2.5"/>
		<circle class="st8" cx="135.62" cy="121.45" r="2.5"/>
		<circle class="st8" cx="177.62" cy="140.45" r="1.5"/>
		<circle class="st8" cx="332.62" cy="191.45" r="1.5"/>
		<circle class="st8" cx="329.62" cy="77.45" r="1.5"/>
		<circle class="st9" cx="156.42" cy="184.63" r="2.25"/>
		<circle class="st9" cx="390.42" cy="118.63" r="2.25"/>
		<circle class="st9" cx="353.42" cy="230.63" r="2.25"/>
	</g>
</g>
</svg>
